<?xml version="1.0" standalone="no"?><!DOCTYPE svg PUBLIC "-//W3C//DTD SVG 1.1//EN" "http://www.w3.org/Graphics/SVG/1.1/DTD/svg11.dtd"><svg t="1546937873423" class="icon" style="" viewBox="0 0 1024 1024" version="1.1" xmlns="http://www.w3.org/2000/svg" p-id="3018" xmlns:xlink="http://www.w3.org/1999/xlink" width="200" height="200"><defs><style type="text/css"></style></defs><path d="M202.532571 451.766857h618.057143v471.771429c0 40.228571-32.914286 73.142857-73.142857 73.142857-14.628571 0-25.6-3.657143-36.571428-10.971429l-179.2-109.714285c-10.971429-7.314286-25.6-7.314286-36.571429 0l-179.2 109.714285c-32.914286 21.942857-80.457143 10.971429-102.4-25.6-7.314286-10.971429-10.971429-25.6-10.971429-36.571428V451.766857z" fill="#66D186" p-id="3019"></path><path d="M418.304 451.766857H604.818286v482.742857H418.304z" fill="#9FE2B3" p-id="3020"></path><path d="M109.714286 391.314286a402.285714 391.314286 0 1 0 804.571428 0 402.285714 391.314286 0 1 0-804.571428 0Z" fill="#D6C3A8" p-id="3021"></path><path d="M512 683.885714c171.885714 0 310.857143-135.314286 310.857143-299.885714S683.885714 84.114286 512 84.114286 204.8 219.428571 204.8 384s138.971429 299.885714 307.2 299.885714z" fill="#CAB496" p-id="3022"></path><path d="M522.971429 212.114286c36.571429 0 65.828571 7.314286 87.771428 25.6 21.942857 18.285714 32.914286 43.885714 32.914286 73.142857 0 40.228571-21.942857 65.828571-62.171429 80.457143 21.942857 7.314286 36.571429 18.285714 47.542857 29.257143 10.971429 14.628571 18.285714 32.914286 18.285715 54.857142 0 32.914286-10.971429 62.171429-36.571429 84.114286-25.6 21.942857-58.514286 32.914286-95.085714 32.914286s-65.828571-10.971429-91.428572-29.257143c-25.6-21.942857-40.228571-51.2-43.885714-95.085714h54.857143c0 25.6 7.314286 43.885714 25.6 58.514285 14.628571 10.971429 29.257143 18.285714 51.2 18.285715 21.942857 0 43.885714-7.314286 58.514286-21.942857 10.971429-10.971429 18.285714-25.6 18.285714-43.885715 0-21.942857-7.314286-36.571429-18.285714-47.542857-10.971429-10.971429-29.257143-14.628571-54.857143-14.628571h-25.6v-40.228572h25.6c21.942857 0 40.228571-3.657143 51.2-14.628571 10.971429-10.971429 18.285714-25.6 18.285714-43.885714s-7.314286-32.914286-14.628571-40.228572c-10.971429-10.971429-29.257143-14.628571-51.2-14.628571-21.942857 0-40.228571 7.314286-51.2 18.285714-7.314286 7.314286-14.628571 21.942857-18.285715 47.542857H394.971429c3.657143-36.571429 14.628571-65.828571 40.228571-84.114286 21.942857-21.942857 51.2-32.914286 87.771429-32.914285z" fill="#FFFFFF" p-id="3023"></path></svg>