<?xml version="1.0" standalone="no"?><!DOCTYPE svg PUBLIC "-//W3C//DTD SVG 1.1//EN" "http://www.w3.org/Graphics/SVG/1.1/DTD/svg11.dtd"><svg t="1546937868563" class="icon" style="" viewBox="0 0 1024 1024" version="1.1" xmlns="http://www.w3.org/2000/svg" p-id="2905" xmlns:xlink="http://www.w3.org/1999/xlink" width="200" height="200"><defs><style type="text/css"></style></defs><path d="M202.532571 451.766857h618.057143v471.771429c0 40.228571-32.914286 73.142857-73.142857 73.142857-14.628571 0-25.6-3.657143-36.571428-10.971429l-179.2-109.714285c-10.971429-7.314286-25.6-7.314286-36.571429 0l-179.2 109.714285c-32.914286 21.942857-80.457143 10.971429-102.4-25.6-7.314286-10.971429-10.971429-25.6-10.971429-36.571428V451.766857z" fill="#FF6363" p-id="2906"></path><path d="M418.304 451.766857H604.818286v482.742857H418.304z" fill="#FF9D9D" p-id="2907"></path><path d="M109.714286 391.314286a402.285714 391.314286 0 1 0 804.571428 0 402.285714 391.314286 0 1 0-804.571428 0Z" fill="#FFD696" p-id="2908"></path><path d="M201.142857 391.314286a310.857143 299.885714 0 1 0 621.714286 0 310.857143 299.885714 0 1 0-621.714286 0Z" fill="#FFBA16" p-id="2909"></path><path d="M508.342857 208.457143H548.571429v365.714286h-54.857143V274.285714c-21.942857 21.942857-51.2 36.571429-84.114286 47.542857V266.971429c14.628571-3.657143 32.914286-10.971429 51.2-21.942858 18.285714-10.971429 32.914286-21.942857 47.542857-36.571428z" fill="#FFFFFF" p-id="2910"></path></svg>