<?xml version="1.0" standalone="no"?><!DOCTYPE svg PUBLIC "-//W3C//DTD SVG 1.1//EN" "http://www.w3.org/Graphics/SVG/1.1/DTD/svg11.dtd"><svg t="1546937851168" class="icon" style="" viewBox="0 0 1846 1024" version="1.1" xmlns="http://www.w3.org/2000/svg" p-id="2781" xmlns:xlink="http://www.w3.org/1999/xlink" width="360.546875" height="200"><defs><style type="text/css"></style></defs><path d="M251.237209 728.706977c-13.097674 0-23.813953-10.716279-23.813953-23.813954s10.716279-23.813953 23.813953-23.813953 23.813953 10.716279 23.813954 23.813953-10.716279 23.813953-23.813954 23.813954z m0-36.911628c-7.144186 0-11.906977 5.953488-11.906976 11.906977s5.953488 11.906977 11.906976 11.906976 11.906977-5.953488 11.906977-11.906976-5.953488-11.906977-11.906977-11.906977zM1282.381395 66.67907c-13.097674 0-23.813953-10.716279-23.813953-23.813954s10.716279-23.813953 23.813953-23.813953 23.813953 10.716279 23.813954 23.813953-10.716279 23.813953-23.813954 23.813954z m0-35.72093c-7.144186 0-11.906977 5.953488-11.906976 11.906976s5.953488 11.906977 11.906976 11.906977 11.906977-5.953488 11.906977-11.906977-4.762791-11.906977-11.906977-11.906976zM1552.669767 281.004651c-13.097674 0-23.813953-10.716279-23.813953-23.813953s10.716279-23.813953 23.813953-23.813954 23.813953 10.716279 23.813954 23.813954-10.716279 23.813953-23.813954 23.813953z m0-35.72093c-7.144186 0-11.906977 5.953488-11.906976 11.906977s5.953488 11.906977 11.906976 11.906976 11.906977-5.953488 11.906977-11.906976-4.762791-11.906977-11.906977-11.906977zM1780.093023 863.255814c-13.097674 0-23.813953-10.716279-23.813953-23.813954s10.716279-23.813953 23.813953-23.813953 23.813953 10.716279 23.813954 23.813953-10.716279 23.813953-23.813954 23.813954z m0-36.911628c-7.144186 0-11.906977 5.953488-11.906976 11.906977s5.953488 11.906977 11.906976 11.906977 11.906977-5.953488 11.906977-11.906977-5.953488-11.906977-11.906977-11.906977z" fill="#AAAAAA" p-id="2782"></path><path d="M323.869767 621.544186a15.47907 15.47907 0 1 0 30.95814 0 15.47907 15.47907 0 1 0-30.95814 0Z" fill="#D8D8D8" p-id="2783"></path><path d="M453.655814 167.888372a15.47907 15.47907 0 1 0 30.958139 0 15.47907 15.47907 0 1 0-30.958139 0Z" fill="#D8D8D8" p-id="2784"></path><path d="M748.948837 122.64186a11.906977 11.906977 0 1 0 23.813954 0 11.906977 11.906977 0 1 0-23.813954 0Z" fill="#D8D8D8" p-id="2785"></path><path d="M1054.95814 11.906977a11.906977 11.906977 0 1 0 23.813953 0 11.906977 11.906977 0 1 0-23.813953 0Z" fill="#D8D8D8" p-id="2786"></path><path d="M1430.027907 306.009302a11.906977 11.906977 0 1 0 23.813953 0 11.906977 11.906977 0 1 0-23.813953 0Z" fill="#D8D8D8" p-id="2787"></path><path d="M226.232558 434.604651a11.906977 11.906977 0 1 0 23.813954 0 11.906977 11.906977 0 1 0-23.813954 0Z" fill="#D8D8D8" p-id="2788"></path><path d="M464.372093 400.074419l776.334884 402.455814 39.293023 98.827907 17.860465 28.576744 44.055814-171.460465-635.832558-260.762791zM669.172093 452.465116l781.097674 240.520931-105.972093 59.534883-700.130232-282.195349-128.595349-59.534883z" fill="#F6F6F6" p-id="2789"></path><path d="M465.562791 427.460465l562.009302 516.762791L1238.325581 809.674419 465.562791 406.027907l-32.148838-14.288372z" fill="#F6F6F6" p-id="2790"></path><path d="M978.753488 1018.046512c-1.190698 0-3.572093-1.190698-4.76279-2.381396l-535.813954-595.348837-1.190697-1.190698-13.097675-29.767441c-1.190698-2.381395 0-4.762791 1.190698-7.144187 1.190698-1.190698 3.572093-1.190698 5.953488 0l809.674419 417.934884c2.381395 1.190698 3.572093 2.381395 3.572093 4.762791s-1.190698 3.572093-2.381396 4.762791L1058.530233 956.130233c-2.381395 2.381395-5.953488 1.190698-8.334884-1.190698-2.381395-2.381395-2.381395-5.953488 1.190698-8.334884l176.223255-140.502325L440.55814 400.074419l5.953488 14.288372 532.24186 590.586046 48.818605-38.102325c2.381395-2.381395 5.953488-1.190698 8.334884 1.190697 2.381395 2.381395 1.190698 5.953488-1.190698 8.334884l-52.390698 41.674419h-3.572093z" fill="#AAAAAA" p-id="2791"></path><path d="M1293.097674 944.223256c-2.381395 0-4.762791-1.190698-5.953488-3.572093l-53.581395-130.976744c-1.190698-3.572093 0-5.953488 3.572093-8.334884 3.572093-1.190698 5.953488 0 8.334883 3.572093l46.43721 115.497674 44.055814-163.125581-909.693024-370.306977c-2.381395-1.190698-4.762791-4.762791-3.572093-7.144186 1.190698-2.381395 3.572093-4.762791 7.144186-3.572093L1100.204651 559.627907c3.572093 1.190698 4.762791 3.572093 3.572093 7.144186-1.190698 3.572093-3.572093 4.762791-7.144186 3.572093L523.906977 413.172093l819.2 333.395349 129.786046-72.632558-339.348837-92.874419c-3.572093-1.190698-4.762791-3.572093-4.762791-7.144186 1.190698-3.572093 3.572093-4.762791 7.144186-4.762791l353.63721 96.446512c2.381395 1.190698 3.572093 2.381395 4.76279 4.762791 0 2.381395-1.190698 4.762791-2.381395 5.953488l-141.693023 79.776744-1.190698 1.190698-50.009302 183.367442c-1.190698 2.381395-3.572093 3.572093-5.953489 3.572093z" fill="#AAAAAA" p-id="2792"></path><path d="M1287.144186 950.176744c-1.190698 0-2.381395 0-2.381395-1.190697l-127.404651-73.823256c-2.381395-1.190698-3.572093-4.762791-2.381396-8.334884 1.190698-2.381395 4.762791-3.572093 8.334884-2.381395l127.404651 73.823255c2.381395 1.190698 3.572093 4.762791 2.381395 8.334884-1.190698 3.572093-3.572093 3.572093-5.953488 3.572093z" fill="#AAAAAA" p-id="2793"></path><path d="M242.902326 313.153488h-130.976745c-21.432558 0-39.293023-17.860465-39.293023-40.483721s17.860465-41.674419 39.293023-41.674418H121.451163v-8.334884c2.381395-30.95814 27.386047-54.772093 57.153488-54.772093 22.623256 0 42.865116 14.288372 52.390698 35.72093l2.381395 5.953489h15.47907c21.432558 2.381395 39.293023 17.860465 45.246512 39.293023 1.190698 3.572093 3.572093 13.097674 0 23.813953-4.762791 19.051163-22.623256 35.72093-45.246512 41.674419" fill="#F6F6F6" p-id="2794"></path><path d="M207.181395 333.395349l-7.144186-1.190698H59.534884c-32.148837 0-59.534884-27.386047-59.534884-61.916279 0-33.339535 23.813953-59.534884 54.772093-60.725581 5.953488-36.911628 38.102326-66.67907 77.395349-66.67907 28.576744 0 54.772093 16.669767 67.869767 42.865116h8.334884c30.95814 3.572093 55.962791 25.004651 63.106977 55.962791 1.190698 4.762791 3.572093 17.860465 0 34.530232-5.953488 28.576744-30.95814 50.009302-63.106977 58.344187h-1.190698z m-5.953488-16.669768h5.953488c26.195349-7.144186 45.246512-25.004651 50.009303-46.437209 2.381395-11.906977 0-22.623256 0-26.195349-5.953488-23.813953-25.004651-41.674419-48.818605-44.055814-3.572093 0-7.144186 0-10.716279 1.190698l-5.953488 1.190698-2.381396-5.953489c-10.716279-23.813953-33.339535-39.293023-57.153488-39.293023-33.339535 0-60.725581 26.195349-63.106977 60.725581v9.525582l-10.716279-1.190698h-1.190698c-23.813953 0-42.865116 20.24186-42.865116 45.246512 0 25.004651 19.051163 45.246512 42.865116 45.246511h144.074419z" fill="#AAAAAA" p-id="2795"></path><path d="M1802.716279 613.209302h-107.162791c-17.860465 0-32.148837-13.097674-32.148837-29.767442s14.288372-30.95814 32.148837-30.958139h8.334884v-5.953488c2.381395-22.623256 22.623256-40.483721 46.437209-40.483721 17.860465 0 34.530233 10.716279 42.865117 26.195348l2.381395 3.572093h13.097674c17.860465 1.190698 32.148837 13.097674 36.911628 29.767442 1.190698 2.381395 2.381395 9.525581 0 17.860465-3.572093 14.288372-17.860465 26.195349-36.911628 30.95814" fill="#F6F6F6" p-id="2796"></path><path d="M1772.948837 631.069767H1655.069767c-26.195349 0-47.627907-20.24186-47.627907-46.437209 0-25.004651 19.051163-44.055814 44.055814-45.246511 4.762791-29.767442 30.95814-51.2 61.916279-51.2 22.623256 0 44.055814 11.906977 54.772094 32.148837h5.953488c25.004651 2.381395 45.246512 19.051163 51.2 41.674418 1.190698 3.572093 3.572093 13.097674 0 25.004651-4.762791 21.432558-25.004651 38.102326-51.2 44.055814h-1.190698z m-3.572093-11.906976h4.762791c20.24186-5.953488 36.911628-19.051163 40.483721-34.530233 2.381395-9.525581 0-16.669767 0-20.24186-4.762791-17.860465-20.24186-30.95814-40.483721-32.148838h-13.097675l-2.381395-4.76279c-8.334884-16.669767-26.195349-28.576744-46.437209-28.576744-26.195349 0-48.818605 20.24186-50.009303 45.246511v7.144186h-9.525581c-19.051163 0-34.530233 15.47907-34.530232 34.530233 0 19.051163 15.47907 33.339535 34.530232 33.339535h116.688372z" fill="#AAAAAA" p-id="2797"></path></svg>