<?xml version="1.0" standalone="no"?><!DOCTYPE svg PUBLIC "-//W3C//DTD SVG 1.1//EN" "http://www.w3.org/Graphics/SVG/1.1/DTD/svg11.dtd"><svg t="1546937835310" class="icon" style="" viewBox="0 0 1627 1024" version="1.1" xmlns="http://www.w3.org/2000/svg" p-id="2520" xmlns:xlink="http://www.w3.org/1999/xlink" width="317.7734375" height="200"><defs><style type="text/css"></style></defs><path d="M838.471192 998.568536h-317.312145c-11.623156 0-20.92168-8.136209-20.92168-19.759365v-692.740068c0-10.46084 9.298524-19.759364 20.92168-19.759364h507.931895c11.623156 0 20.92168 8.136209 20.92168 19.759364v488.172532" fill="#F6F6F6" p-id="2521"></path><path d="M476.991056 998.568536c-10.46084 0-19.759364-9.298524-19.759365-19.759365v-721.797956c1.162316-10.46084 9.298524-19.759364 19.759365-19.759365h560.236095c10.46084 0 19.759364 9.298524 19.759364 19.759365v526.528944l-213.866061 215.028377h-366.129398z m0-749.69353c-3.486947 0-6.973893 3.486947-6.973894 8.136209v722.960272c0 4.649262 3.486947 8.136209 8.136209 8.136209l360.317821-1.162316 208.054483-208.054483v-521.879682c0-4.649262-3.486947-8.136209-8.136208-8.136209h-561.398411z" fill="#AAAAAA" p-id="2522"></path><path d="M550.216935 344.184881h412.622021v11.623155h-412.622021zM550.216935 470.877276h412.622021v11.623155h-412.622021zM550.216935 596.407355h412.622021v11.623156h-412.622021zM550.216935 723.09975h412.622021v11.623156h-412.622021zM550.216935 849.792145h196.431328v11.623156h-196.431328z" fill="#AAAAAA" p-id="2523"></path><path d="M1051.174938 783.540159c-59.278093 26.733258-109.257662 39.518729-151.101022 39.518729-41.84336 0-67.414302-1.162316-79.037457-2.324631 16.272418 46.492622 24.408627 80.199773 26.733257 99.959137 2.324631 30.220204 6.973893 58.115778-2.324631 70.901248-5.811578 8.136209 62.76504-60.440409 205.729853-208.054483z" fill="#D8D8D8" p-id="2524"></path><path d="M844.28277 1004.380114c-2.324631 0-4.649262-1.162316-6.973894-3.486947-4.649262-3.486947-4.649262-11.623156-1.162315-16.272418 4.649262-6.973893 3.486947-27.895573 1.162315-46.492622 0-5.811578-1.162316-10.46084-1.162315-16.272418-1.162316-18.597049-10.46084-51.141884-25.570942-97.634506-1.162316-3.486947 0-8.136209 2.324631-10.46084 2.324631-3.486947 5.811578-4.649262 10.46084-4.649262 10.46084 1.162316 36.031782 1.162316 77.875142 2.324631 39.518729 0 88.335982-12.785471 145.289443-38.356413 4.649262-2.324631 11.623156-1.162316 13.947787 3.486947 3.486947 4.649262 2.324631 10.46084-1.162316 15.110102-68.576617 69.738933-119.718502 123.205448-153.425652 158.074915-44.167991 43.005675-54.628831 54.628831-61.602724 54.628831z m-5.811578-170.860386c12.785471 39.518729 19.759364 68.576617 20.92168 86.01135 0 5.811578 1.162316 10.46084 1.162315 16.272418 1.162316 8.136209 1.162316 16.272418 2.324631 23.246311 23.246311-23.246311 65.089671-66.251986 141.802498-145.289444-38.356413 13.947787-73.22588 19.759364-103.446084 19.759365-27.895573 1.162316-48.817253 1.162316-62.76504 0z" fill="#979797" p-id="2525"></path><path d="M994.639909 992.489625l211.54143-266.170261v-524.204313c0-6.973893-5.811578-13.947787-13.947786-13.947787h-561.398411c-6.973893 0-12.785471 5.811578-12.785471 13.947787v777.589103c0 6.973893 5.811578 13.947787 13.947786 13.947787l362.642452-1.162316z" fill="#FFFFFF" p-id="2526"></path><path d="M630.835142 998.301203c-10.46084 0-19.759364-9.298524-19.759364-19.759364v-776.426788c1.162316-11.623156 9.298524-19.759364 19.759364-19.759364h560.236095c10.46084 0 19.759364 9.298524 19.759365 19.759364v526.528944l-213.866062 269.657208h-366.129398z m0-804.322361c-3.486947 0-6.973893 3.486947-6.973893 8.136209v777.589103c0 4.649262 3.486947 8.136209 8.136208 8.136209l360.317821-1.162315 208.054484-261.520999v-523.041998c0-4.649262-3.486947-8.136209-8.136209-8.136209h-561.398411z" fill="#AAAAAA" p-id="2527"></path><path d="M989.990647 977.379523h-310.338252c-17.434733 2.324631-25.570942 0-25.570942-6.973893v-741.557321c0-10.46084 9.298524-19.759364 20.92168-19.759365h503.282633c5.811578 0 10.46084 2.324631 13.947787 4.649263 0 1.162316 0 167.373439 1.162315 496.30874l-203.405221 267.332576z" fill="#F6F6F6" p-id="2528"></path><path d="M1205.019024 728.643995c-59.278093 26.733258-109.257662 39.518729-151.101022 39.518729-41.84336 0-67.414302-1.162316-79.037457-2.324631 16.272418 46.492622 24.408627 80.199773 26.733257 99.959137 2.324631 30.220204 6.973893 106.933031-2.324631 119.718502-5.811578 9.298524 62.76504-76.712826 205.729853-256.871737z" fill="#D8D8D8" p-id="2529"></path><path d="M999.289171 999.463519c-2.324631 0-4.649262-1.162316-6.973893-3.486947-4.649262-3.486947-5.811578-11.623156-2.324631-16.272418 2.324631-4.649262 5.811578-33.707151 0-111.582292-1.162316-18.597049-10.46084-51.141884-25.570942-97.634507-1.162316-3.486947 0-8.136209 2.324631-10.46084 2.324631-3.486947 5.811578-4.649262 10.46084-4.649262 10.46084 1.162316 36.031782 1.162316 77.875142 2.324631 39.518729 0 88.335982-12.785471 145.289444-38.356413 4.649262-2.324631 10.46084-1.162316 13.947786 3.486947 3.486947 4.649262 3.486947 10.46084 0 13.947786-68.576617 86.011351-119.718502 151.101022-154.587968 194.106697-17.434733 22.083995-30.220204 37.194098-38.356413 48.817253-4.649262 5.811578-8.136209 10.46084-11.623156 13.947787l-1.162315 1.162316c-3.486947 2.324631-6.973893 4.649262-9.298525 4.649262z m-6.973893-220.839955c12.785471 39.518729 19.759364 68.576617 20.92168 86.011351 2.324631 37.194098 3.486947 62.76504 3.486947 81.362088 27.895573-34.869467 79.037457-98.796822 151.101021-190.61975-43.005675 16.272418-80.199773 23.246311-113.906924 23.246311-26.733258 1.162316-47.654938 1.162316-61.602724 0z" fill="#979797" p-id="2530"></path><path d="M828.858842 300.098252h282.442679c3.486947 0 5.811578 2.324631 5.811578 5.811578s-2.324631 5.811578-5.811578 5.811577h-282.442679c-3.486947 0-5.811578-2.324631-5.811578-5.811577s3.486947-5.811578 5.811578-5.811578zM828.858842 679.013121h282.442679c3.486947 0 5.811578 2.324631 5.811578 5.811578s-2.324631 5.811578-5.811578 5.811578h-282.442679c-3.486947 0-5.811578-2.324631-5.811578-5.811578s3.486947-5.811578 5.811578-5.811578zM828.858842 805.705516h129.017026c3.486947 0 5.811578 2.324631 5.811578 5.811578s-2.324631 5.811578-5.811578 5.811578h-129.017026c-3.486947 0-5.811578-2.324631-5.811578-5.811578s2.324631-5.811578 5.811578-5.811578zM737.035914 333.805403c-1.162316 0-2.324631 0-3.486947-1.162316l-33.707151-31.382519c-2.324631-2.324631-2.324631-5.811578 0-8.136209 2.324631-2.324631 5.811578-2.324631 8.136209 0l30.220204 27.895573 44.167991-48.817253c2.324631-2.324631 5.811578-2.324631 8.136209 0 2.324631 2.324631 2.324631 5.811578 0 8.136209l-48.817253 52.304199c-1.162316 1.162316-2.324631 1.162316-4.649262 1.162316zM745.172123 467.471691h-12.785471c-16.272418 0-29.057889-12.785471-29.057889-29.057889v-12.785471c0-16.272418 12.785471-29.057889 29.057889-29.057888h12.785471c16.272418 0 29.057889 12.785471 29.057888 29.057888v12.785471c0 16.272418-12.785471 29.057889-29.057888 29.057889z m-12.785471-59.278093c-9.298524 0-17.434733 8.136209-17.434734 17.434733v12.785471c0 9.298524 8.136209 17.434733 17.434734 17.434734h12.785471c9.298524 0 17.434733-8.136209 17.434733-17.434734v-12.785471c0-9.298524-8.136209-17.434733-17.434733-17.434733h-12.785471zM745.172123 594.164086h-12.785471c-16.272418 0-29.057889-12.785471-29.057889-29.057888v-12.785472c0-16.272418 12.785471-29.057889 29.057889-29.057888h12.785471c16.272418 0 29.057889 12.785471 29.057888 29.057888v12.785472c0 16.272418-12.785471 29.057889-29.057888 29.057888z m-12.785471-59.278093c-9.298524 0-17.434733 8.136209-17.434734 17.434733v12.785472c0 9.298524 8.136209 17.434733 17.434734 17.434733h12.785471c9.298524 0 17.434733-8.136209 17.434733-17.434733v-12.785472c0-9.298524-8.136209-17.434733-17.434733-17.434733h-12.785471zM745.172123 720.856481h-12.785471c-16.272418 0-29.057889-12.785471-29.057889-29.057888v-12.785472c0-16.272418 12.785471-29.057889 29.057889-29.057888h12.785471c16.272418 0 29.057889 12.785471 29.057888 29.057888v12.785472c0 15.110102-12.785471 29.057889-29.057888 29.057888z m-12.785471-60.440408c-9.298524 0-17.434733 8.136209-17.434734 17.434733v12.785471c0 9.298524 8.136209 17.434733 17.434734 17.434733h12.785471c9.298524 0 17.434733-8.136209 17.434733-17.434733v-12.785471c0-9.298524-8.136209-17.434733-17.434733-17.434733h-12.785471zM745.172123 846.386561h-12.785471c-16.272418 0-29.057889-12.785471-29.057889-29.057889v-12.785471c0-16.272418 12.785471-29.057889 29.057889-29.057889h12.785471c16.272418 0 29.057889 12.785471 29.057888 29.057889v12.785471c0 16.272418-12.785471 29.057889-29.057888 29.057889z m-12.785471-59.278093c-9.298524 0-17.434733 8.136209-17.434734 17.434733v12.785471c0 9.298524 8.136209 17.434733 17.434734 17.434733h12.785471c9.298524 0 17.434733-8.136209 17.434733-17.434733v-12.785471c0-9.298524-8.136209-17.434733-17.434733-17.434733h-12.785471z" fill="#AAAAAA" p-id="2531"></path><path d="M890.147741 824.360681a191.782066 191.782066 0 1 0 383.564132 0 191.782066 191.782066 0 1 0-383.564132 0Z" fill="#FFFFFF" p-id="2532"></path><path d="M1081.929807 1023.11664c-109.257662 0-197.593644-88.335982-197.593644-197.593643s88.335982-197.593644 197.593644-197.593644 197.593644 88.335982 197.593644 197.593644-88.335982 197.593644-197.593644 197.593643z m0-384.726447C979.646039 638.390193 895.959319 722.076913 895.959319 824.360681s83.68672 185.970488 185.970488 185.970488 185.970488-83.68672 185.970488-185.970488-82.524404-185.970488-185.970488-185.970488z" fill="#979797" p-id="2533"></path><path d="M1093.552963 1010.331169c45.330306-3.486947 101.121453-26.733258 134.828603-69.738933 12.785471-16.272418 27.895573-47.654938 32.544836-61.602724 3.486947-13.947787 6.973893-29.057889 8.136209-41.84336 1.162316-24.408627-1.162316-43.005675-2.324631-46.492622-4.649262-25.570942-13.947787-49.979569-29.057889-70.901249-16.272418-23.246311-37.194098-43.005675-59.278093-56.953461-20.92168-11.623156-44.167991-19.759364-73.22588-19.759365-94.14756 0-172.022701 95.309875-172.022701 189.457435s59.278093 185.970488 160.399546 177.834279z" fill="#F6F6F6" p-id="2534"></path><path d="M984.376663 843.713235c17.434733-17.434733 25.570942-31.38252 25.570942-31.38252 6.973893 6.973893 70.901249 62.76504 73.22588 68.576618 34.869467-36.031782 80.199773-96.472191 111.582293-139.477866l17.434733 12.785471c-11.623156 22.083995-54.628831 73.22588-127.854711 153.425652-44.167991-30.220204-76.712826-52.3042-99.959137-63.927355z" fill="#AAAAAA" p-id="2535"></path><path d="M219.677639 274.213485H101.121453c-19.759364 0-36.031782-16.272418-36.031782-36.031782 0-20.92168 16.272418-37.194098 36.031782-37.194098H110.419977v-6.973893c2.324631-27.895573 24.408627-49.979569 51.141885-49.979569 19.759364 0 38.356413 12.785471 47.654937 31.38252l2.324631 4.649262h13.947787c19.759364 2.324631 36.031782 16.272418 40.681044 34.869467 1.162316 3.486947 2.324631 11.623156 0 20.92168-3.486947 17.434733-19.759364 31.38252-41.84336 37.194097" fill="#F6F6F6" p-id="2536"></path><path d="M187.132804 291.648218H53.466515c-29.057889 0-53.466515-24.408627-53.466515-54.628831 0-29.057889 22.083995-52.3042 49.979569-54.628831 5.811578-33.707151 34.869467-60.440409 69.738933-60.440408 25.570942 0 49.979569 13.947787 61.602724 38.356413h6.973893c27.895573 2.324631 49.979569 22.083995 56.953462 49.979568 1.162316 4.649262 3.486947 16.272418 0 30.220205-5.811578 25.570942-27.895573 45.330306-56.953462 52.304199h-1.162315z m-4.649263-13.947787h5.811578c23.246311-6.973893 41.84336-22.083995 45.330307-40.681044 2.324631-10.46084 0-20.92168 0-23.246311-5.811578-20.92168-23.246311-37.194098-44.167991-39.518729H174.347333l-2.324632-5.811577c-9.298524-20.92168-30.220204-34.869467-52.304199-34.869467-30.220204 0-54.628831 23.246311-56.953462 54.628831v8.136209h-11.623156c-20.92168 0-39.518729 18.597049-39.518728 40.681044s17.434733 40.681044 39.518728 40.681044h131.341657z" fill="#AAAAAA" p-id="2537"></path><path d="M225.384608 654.383655c-12.785471 0-22.083995-10.46084-22.083995-22.083996 0-12.785471 10.46084-22.083995 22.083995-22.083995s22.083995 10.46084 22.083996 22.083995c0 12.785471-10.46084 22.083995-22.083996 22.083996z m0-32.544835c-5.811578 0-10.46084 4.649262-10.46084 10.460839s4.649262 10.46084 10.46084 10.46084 10.46084-4.649262 10.46084-10.46084-4.649262-10.46084-10.46084-10.460839zM1148.263156 61.602724c-12.785471 0-22.083995-10.46084-22.083996-22.083995s10.46084-22.083995 22.083996-22.083996c12.785471 0 22.083995 10.46084 22.083995 22.083996s-9.298524 22.083995-22.083995 22.083995z m0-32.544835c-5.811578 0-10.46084 4.649262-10.46084 10.46084s4.649262 10.46084 10.46084 10.46084 10.46084-4.649262 10.460839-10.46084-4.649262-10.46084-10.460839-10.46084zM1390.02479 254.547106c-12.785471 0-22.083995-10.46084-22.083995-22.083996s10.46084-22.083995 22.083995-22.083995c12.785471 0 22.083995 10.46084 22.083995 22.083995s-9.298524 22.083995-22.083995 22.083996z m0-33.707151c-5.811578 0-10.46084 4.649262-10.46084 10.46084s4.649262 10.46084 10.46084 10.46084 10.46084-4.649262 10.46084-10.46084-4.649262-10.46084-10.46084-10.46084zM1593.430011 775.264472c-12.785471 0-22.083995-10.46084-22.083995-22.083995 0-12.785471 10.46084-22.083995 22.083995-22.083996s22.083995 10.46084 22.083996 22.083996c0 12.785471-9.298524 22.083995-22.083996 22.083995z m0-32.544835c-5.811578 0-10.46084 4.649262-10.46084 10.46084s4.649262 10.46084 10.46084 10.46084 10.46084-4.649262 10.46084-10.46084-4.649262-10.46084-10.46084-10.46084z" fill="#AAAAAA" p-id="2538"></path><path d="M290.474279 557.911464a13.947787 13.947787 0 1 0 27.895573 0 13.947787 13.947787 0 1 0-27.895573 0Z" fill="#F4F4F4" p-id="2539"></path><path d="M406.705834 152.263337a13.947787 13.947787 0 1 0 27.895573 0 13.947787 13.947787 0 1 0-27.895573 0Z" fill="#F4F4F4" p-id="2540"></path><path d="M669.389149 110.419977a11.623156 11.623156 0 1 0 23.246311 0 11.623156 11.623156 0 1 0-23.246311 0Z" fill="#F4F4F4" p-id="2541"></path><path d="M944.857934 11.623156a11.623156 11.623156 0 1 0 23.246311 0 11.623156 11.623156 0 1 0-23.246311 0Z" fill="#F4F4F4" p-id="2542"></path><path d="M1279.604813 275.468785a11.623156 11.623156 0 1 0 23.246311 0 11.623156 11.623156 0 1 0-23.246311 0Z" fill="#F4F4F4" p-id="2543"></path><path d="M202.138297 390.538025a11.623156 11.623156 0 1 0 23.246311 0 11.623156 11.623156 0 1 0-23.246311 0Z" fill="#F4F4F4" p-id="2544"></path><path d="M1112.335982 439.355278H890.333712c-3.486947 0-5.811578-2.324631-5.811578-5.811578s2.324631-5.811578 5.811578-5.811577h222.00227c3.486947 0 5.811578 2.324631 5.811578 5.811577s-3.486947 5.811578-5.811578 5.811578z m-254.547106 0h-23.246311c-3.486947 0-5.811578-2.324631-5.811577-5.811578s2.324631-5.811578 5.811577-5.811577h23.246311c3.486947 0 5.811578 2.324631 5.811578 5.811577s-3.486947 5.811578-5.811578 5.811578z" fill="#AAAAAA" p-id="2545"></path><path d="M1112.335982 562.560726h-82.524404c-3.486947 0-5.811578-2.324631-5.811578-5.811577s2.324631-5.811578 5.811578-5.811578h82.524404c3.486947 0 5.811578 2.324631 5.811578 5.811578s-3.486947 5.811578-5.811578 5.811577z m-111.582293 0H833.38025c-3.486947 0-5.811578-2.324631-5.811578-5.811577s2.324631-5.811578 5.811578-5.811578h167.373439c3.486947 0 5.811578 2.324631 5.811578 5.811578s-2.324631 5.811578-5.811578 5.811577z" fill="#AAAAAA" p-id="2546"></path></svg>