<?xml version="1.0" standalone="no"?><!DOCTYPE svg PUBLIC "-//W3C//DTD SVG 1.1//EN" "http://www.w3.org/Graphics/SVG/1.1/DTD/svg11.dtd"><svg t="1546937825478" class="icon" style="" viewBox="0 0 1689 1024" version="1.1" xmlns="http://www.w3.org/2000/svg" p-id="2398" xmlns:xlink="http://www.w3.org/1999/xlink" width="329.8828125" height="200"><defs><style type="text/css"></style></defs><path d="M1143.808 779.264l171.008 177.152c15.36 15.36 15.36 39.936 0 55.296-14.336 14.336-37.888 15.36-52.224 1.024l-1.024-1.024-172.032-178.176-2.048-2.048c-53.248 38.912-119.808 62.464-191.488 62.464-179.2 0-324.608-145.408-324.608-323.584S716.8 246.784 896 246.784s324.608 144.384 324.608 323.584c0 79.872-28.672 152.576-76.8 208.896z m-247.808 47.104c142.336 0 257.024-114.688 257.024-256s-114.688-256-257.024-256-257.024 114.688-257.024 256 114.688 256 257.024 256z" fill="#F6F6F6" p-id="2399"></path><path d="M1259.52 1016.832c-11.264 0-21.504-4.096-29.696-12.288l-1.024-1.024-169.984-176.128c-56.32 39.936-121.856 60.416-190.464 60.416-182.272 0-330.752-147.456-330.752-328.704 0-181.248 148.48-328.704 329.728-328.704 182.272 0 330.752 147.456 330.752 328.704 0 75.776-26.624 150.528-75.776 208.896L1290.24 942.08c17.408 17.408 17.408 45.056 0 62.464-7.168 7.168-18.432 12.288-30.72 12.288 1.024 0 1.024 0 0 0z m-199.68-203.776l3.072 4.096c0 1.024 1.024 1.024 1.024 2.048l173.056 179.2c6.144 6.144 14.336 9.216 22.528 9.216h1.024c8.192 0 16.384-4.096 22.528-10.24 13.312-13.312 13.312-34.816 0-48.128l-174.08-181.248 3.072-3.072c49.152-57.344 75.776-130.048 75.776-205.824 0-176.128-143.36-318.464-320.512-318.464S547.84 382.976 547.84 559.104c0 175.104 143.36 318.464 319.488 318.464 68.608 0 133.12-21.504 188.416-61.44l4.096-3.072z m-192.512 7.168c-144.384 0-262.144-116.736-262.144-261.12s117.76-261.12 262.144-261.12c144.384 0 262.144 116.736 262.144 261.12S1012.736 820.224 867.328 820.224z m0-512c-139.264 0-251.904 112.64-251.904 250.88s112.64 250.88 251.904 250.88 251.904-112.64 251.904-250.88-112.64-250.88-251.904-250.88z" fill="#999999" p-id="2400"></path><path d="M1054.72 567.296c-3.072 0-5.12-2.048-5.12-5.12 0-7.168 0-13.312-1.024-19.456 0-3.072 2.048-5.12 4.096-5.12 3.072 0 5.12 2.048 5.12 4.096 1.024 7.168 1.024 14.336 1.024 20.48 1.024 3.072-1.024 5.12-4.096 5.12z m-14.336-73.728c-2.048 0-4.096-1.024-5.12-3.072-28.672-69.632-96.256-113.664-172.032-113.664-3.072 0-5.12-2.048-5.12-5.12s2.048-5.12 5.12-5.12c79.872 0 150.528 47.104 181.248 120.832 1.024 3.072 0 5.12-3.072 7.168 0-2.048 0-1.024-1.024-1.024z" fill="#979797" p-id="2401"></path><path d="M224.256 279.552H103.424c-20.48 0-36.864-16.384-36.864-36.864S82.944 204.8 103.424 204.8h9.216v-7.168c2.048-28.672 24.576-50.176 52.224-50.176 20.48 0 38.912 12.288 48.128 31.744l2.048 5.12h14.336c20.48 2.048 36.864 16.384 40.96 35.84 1.024 3.072 3.072 11.264 0 21.504-4.096 17.408-20.48 31.744-41.984 37.888" fill="#F6F6F6" p-id="2402"></path><path d="M190.464 297.984H54.272c-29.696 0-54.272-25.6-54.272-56.32 0-29.696 22.528-54.272 50.176-56.32 6.144-34.816 35.84-61.44 70.656-61.44 26.624 0 50.176 14.336 63.488 38.912h7.168c28.672 3.072 51.2 22.528 58.368 51.2 1.024 4.096 4.096 16.384 1.024 30.72-6.144 25.6-28.672 46.08-58.368 53.248h-2.048z m-5.12-14.336h6.144c23.552-7.168 41.984-22.528 47.104-41.984 3.072-11.264 1.024-20.48-1.024-24.576-5.12-21.504-22.528-37.888-45.056-39.936-4.096 0-6.144 0-10.24 1.024l-6.144 1.024-2.048-6.144c-10.24-21.504-30.72-35.84-53.248-35.84-30.72 0-56.32 24.576-58.368 56.32v8.192l-9.216-1.024h-1.024c-22.528 0-39.936 18.432-39.936 41.984 0 22.528 17.408 40.96 39.936 40.96h133.12z" fill="#AAAAAA" p-id="2403"></path><path d="M1649.00864 569.344h-95.232c-16.384 0-28.672-13.312-28.672-28.672 0-16.384 13.312-28.672 28.672-28.672h7.168v-6.144c2.048-21.504 19.456-38.912 41.984-38.912 16.384 0 30.72 10.24 37.888 24.576l2.048 4.096h11.264c16.384 2.048 28.672 12.288 32.768 27.648 1.024 2.048 2.048 9.216 0 16.384-3.072 13.312-16.384 24.576-33.792 29.696" fill="#F6F6F6" p-id="2404"></path><path d="M1623.40864 585.728h-105.472c-23.552 0-43.008-19.456-43.008-44.032 0-23.552 17.408-41.984 38.912-43.008 5.12-27.648 28.672-48.128 55.296-48.128 20.48 0 38.912 11.264 49.152 29.696h6.144c22.528 2.048 39.936 17.408 45.056 38.912 1.024 3.072 3.072 12.288 0 24.576-4.096 19.456-22.528 35.84-45.056 41.984h-1.024z m-4.096-11.264h5.12c18.432-5.12 32.768-17.408 35.84-32.768 2.048-9.216 0-16.384 0-18.432-4.096-17.408-18.432-29.696-35.84-30.72h-12.288l-2.048-4.096c-7.168-16.384-23.552-27.648-40.96-27.648-23.552 0-44.032 18.432-45.056 43.008v6.144H1515.88864c-17.408 0-30.72 14.336-30.72 32.768 0 17.408 14.336 31.744 30.72 31.744h103.424z" fill="#AAAAAA" p-id="2405"></path><path d="M230.03136 669.696c-12.288 0-21.504-10.24-21.504-22.528s10.24-22.528 21.504-22.528 21.504 10.24 21.504 22.528-9.216 22.528-21.504 22.528z m0-33.792c-6.144 0-11.264 5.12-11.264 12.288s5.12 12.288 11.264 12.288 11.264-5.12 11.264-12.288-5.12-12.288-11.264-12.288zM1172.11136 61.44c-12.288 0-21.504-10.24-21.504-21.504s10.24-21.504 21.504-21.504 21.504 10.24 21.504 21.504-9.216 21.504-21.504 21.504z m0-33.792c-6.144 0-11.264 5.12-11.264 11.264s5.12 12.288 11.264 12.288c6.144 0 11.264-5.12 11.264-11.264s-5.12-12.288-11.264-12.288zM1418.89536 258.048c-12.288 0-21.504-10.24-21.504-21.504s10.24-21.504 21.504-21.504 21.504 10.24 21.504 21.504-9.216 21.504-21.504 21.504z m0-32.768c-6.144 0-11.264 5.12-11.264 11.264s5.12 11.264 11.264 11.264c6.144 0 11.264-5.12 11.264-11.264s-5.12-11.264-11.264-11.264zM1626.76736 793.6c-12.288 0-21.504-10.24-21.504-22.528s10.24-21.504 21.504-21.504 21.504 10.24 21.504 21.504-10.24 22.528-21.504 22.528z m0-33.792c-6.144 0-11.264 5.12-11.264 11.264 0 6.144 5.12 12.288 11.264 12.288 6.144 0 11.264-5.12 11.264-12.288 0-6.144-5.12-11.264-11.264-11.264z" fill="#AAAAAA" p-id="2406"></path><path d="M296.59136 571.392a14.336 14.336 0 1 0 28.672 0 14.336 14.336 0 1 0-28.672 0Z" fill="#F4F4F4" p-id="2407"></path><path d="M414.35136 154.624a14.336 14.336 0 1 0 28.672 0 14.336 14.336 0 1 0-28.672 0Z" fill="#F4F4F4" p-id="2408"></path><path d="M683.66336 112.64a11.264 11.264 0 1 0 22.528 0 11.264 11.264 0 1 0-22.528 0Z" fill="#F4F4F4" p-id="2409"></path><path d="M964.23936 11.264a11.264 11.264 0 1 0 22.528 0 11.264 11.264 0 1 0-22.528 0Z" fill="#F4F4F4" p-id="2410"></path><path d="M1306.25536 281.6a11.264 11.264 0 1 0 22.528 0 11.264 11.264 0 1 0-22.528 0Z" fill="#F4F4F4" p-id="2411"></path><path d="M207.50336 399.36a11.264 11.264 0 1 0 22.528 0 11.264 11.264 0 1 0-22.528 0Z" fill="#F4F4F4" p-id="2412"></path></svg>