<?xml version="1.0" standalone="no"?><!DOCTYPE svg PUBLIC "-//W3C//DTD SVG 1.1//EN" "http://www.w3.org/Graphics/SVG/1.1/DTD/svg11.dtd"><svg t="1546937843484" class="icon" style="" viewBox="0 0 1391 1024" version="1.1" xmlns="http://www.w3.org/2000/svg" p-id="2654" xmlns:xlink="http://www.w3.org/1999/xlink" width="271.6796875" height="200"><defs><style type="text/css"></style></defs><path d="M705.271523 811.514349c-49.730684 0-90.419426-39.558499-91.549669-88.158941l-5.651214-253.174393c0-14.693157 2.260486-28.256071 7.9117-39.558498-1.130243-1.130243-2.260486-3.390728-3.390729-5.651215-23.735099-39.558499 22.604857-115.284768 137.889625-229.439293 114.154525 117.545254 160.494481 193.271523 137.889625 229.439293-1.130243 2.260486-2.260486 3.390728-4.520971 5.651215 5.651214 11.302428 7.9117 24.865342 7.911699 37.298013v2.260485l-5.651214 253.174393c-1.130243 47.470199-39.558499 87.028698-87.028697 88.158941l11.302428 31.646799-56.512141 165.015452-61.033113-165.015452 12.432671-31.646799z" fill="#F6F6F6" p-id="2655"></path><path d="M708.662252 1024l-66.684327-180.838852 13.562914-37.298013h106.242825l13.562914 38.428256-1.130242 2.260485-65.554084 177.448124z m-54.251656-180.838852l54.251656 148.06181 54.251655-148.06181-10.172185-25.995585h-90.419426l-7.9117 25.995585z" fill="#AAAAAA" p-id="2656"></path><path d="M753.871965 817.165563h-94.940398c-51.99117 0-94.940397-41.818985-96.07064-93.810155l-4.520971-253.174393c0-13.562914 2.260486-27.125828 7.9117-39.558498-1.130243-1.130243-1.130243-2.260486-2.260486-3.390729-24.865342-41.818985 20.344371-119.80574 139.019868-237.350993l4.520971-4.520972 4.520971 4.520972c117.545254 119.80574 162.754967 197.792494 139.019868 236.22075-1.130243 1.130243-1.130243 2.260486-2.260486 3.390729 4.520971 11.302428 7.9117 23.735099 7.9117 37.298013v2.260486l-5.651214 253.174393c-2.260486 53.121413-45.209713 94.940397-97.200883 94.940397z m-47.470199-614.852097c-136.759382 135.629139-148.06181 194.401766-133.368653 219.267108 1.130243 1.130243 2.260486 3.390728 3.390728 4.520971l2.260486 2.260486-1.130243 3.390728c-5.651214 11.302428-7.9117 24.865342-7.9117 37.298014l5.651214 253.174393c1.130243 46.339956 38.428256 82.507726 84.768212 82.507726h94.940398c46.339956 0 83.637969-37.298013 84.768211-82.507726l5.651215-255.434879c0-12.432671-2.260486-23.735099-7.9117-35.037528l-1.130243-3.390728 2.260486-2.260486c1.130243-1.130243 2.260486-3.390728 3.390728-4.520971 12.432671-22.604857 0-79.116998-135.629139-219.267108z" fill="#AAAAAA" p-id="2657"></path><path d="M928.381457 748.175541l-83.637969-49.730684v-111.89404l83.637969 49.730684v111.89404z m-72.335541-55.381899l61.033113 36.167771v-87.028698l-61.033113-35.037527v85.898454z" fill="#AAAAAA" p-id="2658"></path><path d="M936.293157 785.473554c-10.172185 0-19.214128-9.041943-19.214128-19.214128v-155.97351c0-10.172185 9.041943-19.214128 19.214128-19.214128s19.214128 9.041943 19.214128 19.214128v155.97351c0 10.172185-9.041943 19.214128-19.214128 19.214128z m0-183.099338c-4.520971 0-7.9117 3.390728-7.9117 7.9117v155.97351c0 4.520971 3.390728 7.9117 7.9117 7.9117s7.9117-3.390728 7.9117-7.9117v-155.97351c0-4.520971-4.520971-7.9117-7.9117-7.9117zM484.422075 748.175541v-111.89404l83.637969-49.730684v111.89404l-83.637969 49.730684z m11.302428-106.242826v85.898455l61.033113-35.037528v-85.898454l-61.033113 35.037527z" fill="#AAAAAA" p-id="2659"></path><path d="M476.510375 785.473554c-10.172185 0-19.214128-9.041943-19.214128-19.214128v-155.97351c0-10.172185 9.041943-19.214128 19.214128-19.214128s19.214128 9.041943 19.214128 19.214128v155.97351c0 10.172185-7.9117 19.214128-19.214128 19.214128z m0-183.099338c-4.520971 0-7.9117 3.390728-7.9117 7.9117v155.97351c0 4.520971 3.390728 7.9117 7.9117 7.9117s7.9117-3.390728 7.9117-7.9117v-155.97351c0-4.520971-3.390728-7.9117-7.9117-7.9117zM563.99117 725.615894h285.951435v11.302428H563.99117zM632.935982 266.737307h145.801325v11.302428H632.935982z" fill="#AAAAAA" p-id="2660"></path><path d="M706.401766 501.827815c-42.949227 0-77.986755-35.037528-77.986755-79.116998s35.037528-79.116998 77.986755-79.116998c42.949227 0 77.986755 35.037528 77.986755 79.116998s-35.037528 79.116998-77.986755 79.116998z m0-145.801325c-36.16777 0-66.684327 30.516556-66.684327 67.81457s29.386313 67.81457 66.684327 67.814569c36.16777 0 66.684327-30.516556 66.684327-67.814569s-30.516556-67.81457-66.684327-67.81457z" fill="#AAAAAA" p-id="2661"></path><path d="M706.401766 474.701987c-28.256071 0-50.860927-22.604857-50.860927-50.860927s22.604857-50.860927 50.860927-50.860928 50.860927 22.604857 50.860927 50.860928-22.604857 50.860927-50.860927 50.860927z m0-91.549669c-21.474614 0-39.558499 18.083885-39.558499 39.558499s18.083885 39.558499 39.558499 39.558499 39.558499-18.083885 39.558499-39.558499-18.083885-39.558499-39.558499-39.558499z" fill="#AAAAAA" p-id="2662"></path><path d="M181.969095 230.083532H83.637969c-15.8234 0-29.386313-13.562914-29.386313-30.516556 0-16.953642 13.562914-30.516556 29.386313-30.516557h7.9117v-6.781457c1.130243-23.735099 20.344371-41.818985 42.949227-41.818984 16.953642 0 31.646799 10.172185 39.558499 25.995585l2.260486 4.520971h11.302428c15.8234 1.130243 29.386313 13.562914 33.907285 29.386314 1.130243 2.260486 2.260486 10.172185 0 18.083885-3.390728 14.693157-16.953642 25.995585-33.907285 31.646799" fill="#F6F6F6" p-id="2663"></path><path d="M154.843267 245.906932H44.07947c-23.735099 0-44.07947-20.344371-44.07947-46.339956 0-24.865342 18.083885-44.07947 40.688742-45.209713 4.520971-29.386313 29.386313-50.860927 57.642384-50.860927 21.474614 0 40.688742 12.432671 50.860927 31.646799h5.651214c22.604857 2.260486 41.818985 19.214128 47.470199 41.818984 1.130243 3.390728 3.390728 13.562914 0 25.995585-4.520971 21.474614-22.604857 37.298013-47.470199 44.07947z m-4.520971-11.302429h4.520971c19.214128-5.651214 33.907285-18.083885 37.298013-35.037527 2.260486-9.041943 0-16.953642 0-20.344371-4.520971-18.083885-19.214128-30.516556-37.298013-32.777042h-12.432671l-2.260486-4.520971c-6.781457-15.8234-23.735099-27.125828-41.818984-27.125828-24.865342 0-45.209713 20.344371-47.470199 45.209713v6.781457h-7.9117c-18.083885 0-32.777042 14.693157-32.777042 33.907285 0 18.083885 14.693157 33.907285 32.777042 33.907284h107.373069z" fill="#AAAAAA" p-id="2664"></path><path d="M1336.218278 467.592759h-76.856512c-12.432671 0-23.735099-10.172185-23.735099-23.735099 0-13.562914 10.172185-23.735099 23.735099-23.735099h5.651214v-4.520972c1.130243-18.083885 15.8234-31.646799 33.907285-31.646799 13.562914 0 24.865342 7.9117 30.516556 20.344371l1.130243 3.390729h9.041943c12.432671 1.130243 23.735099 10.172185 25.995585 22.604856 1.130243 2.260486 2.260486 6.781457 0 13.562914-2.260486 11.302428-13.562914 20.344371-27.125828 23.735099" fill="#F6F6F6" p-id="2665"></path><path d="M1314.743664 481.155673H1228.84521c-19.214128 0-33.907285-15.8234-33.907285-36.16777 0-19.214128 13.562914-33.907285 31.646799-35.037528 3.390728-22.604857 22.604857-39.558499 45.209713-39.558499 16.953642 0 31.646799 9.041943 39.558499 24.865343h4.520971c18.083885 1.130243 32.777042 14.693157 37.298014 31.646799 1.130243 2.260486 2.260486 10.172185 0 19.214128-3.390728 16.953642-18.083885 29.386313-38.428257 35.037527z m-2.260485-10.172185h3.390728c14.693157-3.390728 25.995585-13.562914 29.386314-25.995585 2.260486-6.781457 0-13.562914 0-15.8234-3.390728-13.562914-14.693157-23.735099-29.386314-24.865342h-10.172185l-1.130243-3.390728c-5.651214-13.562914-19.214128-22.604857-33.907285-22.604857-19.214128 0-35.037528 15.8234-36.16777 36.167771v5.651214l-5.651214-1.130243h-1.130243c-13.562914 0-24.865342 11.302428-24.865342 25.995585 0 14.693157 11.302428 25.995585 24.865342 25.995585h84.768212z" fill="#AAAAAA" p-id="2666"></path><path d="M186.196203 550.428256c-10.172185 0-19.214128-9.041943-19.214128-19.214128s9.041943-19.214128 19.214128-19.214128c10.172185 0 19.214128 9.041943 19.214128 19.214128s-9.041943 19.214128-19.214128 19.214128z m0-27.125828c-4.520971 0-7.9117 3.390728-7.9117 7.9117s3.390728 7.9117 7.9117 7.9117 7.9117-3.390728 7.9117-7.9117-3.390728-7.9117-7.9117-7.9117zM949.11011 54.251656c-10.172185 0-19.214128-9.041943-19.214128-19.214128s9.041943-19.214128 19.214128-19.214128 19.214128 9.041943 19.214128 19.214128-7.9117 19.214128-19.214128 19.214128z m0-28.256071c-4.520971 0-7.9117 3.390728-7.911699 7.9117 0 4.520971 3.390728 7.9117 7.911699 7.9117s7.9117-3.390728 7.9117-7.9117c0-3.390728-3.390728-7.9117-7.9117-7.9117zM1149.163091 214.746137c-10.172185 0-19.214128-9.041943-19.214129-19.214128s9.041943-19.214128 19.214129-19.214128 19.214128 9.041943 19.214128 19.214128-7.9117 19.214128-19.214128 19.214128z m0-27.125828c-4.520971 0-7.9117 3.390728-7.9117 7.9117 0 4.520971 3.390728 7.9117 7.9117 7.9117s7.9117-3.390728 7.911699-7.9117c0-4.520971-3.390728-7.9117-7.911699-7.9117zM1317.569272 652.15011c-10.172185 0-19.214128-9.041943-19.214129-19.214128s9.041943-19.214128 19.214129-19.214128 19.214128 9.041943 19.214128 19.214128-9.041943 19.214128-19.214128 19.214128z m0-27.125827c-4.520971 0-7.9117 3.390728-7.9117 7.911699s3.390728 7.9117 7.9117 7.9117 7.9117-3.390728 7.911699-7.9117-3.390728-7.9117-7.911699-7.911699z" fill="#AAAAAA" p-id="2667"></path><path d="M240.447859 469.050773a11.302428 11.302428 0 1 0 22.604856 0 11.302428 11.302428 0 1 0-22.604856 0Z" fill="#D8D8D8" p-id="2668"></path><path d="M336.518499 128.847682a11.302428 11.302428 0 1 0 22.604856 0 11.302428 11.302428 0 1 0-22.604856 0Z" fill="#D8D8D8" p-id="2669"></path><path d="M552.394879 93.810155a11.302428 11.302428 0 1 0 22.604856 0 11.302428 11.302428 0 1 0-22.604856 0Z" fill="#D8D8D8" p-id="2670"></path><path d="M779.573687 11.302428a11.302428 11.302428 0 1 0 22.604856 0 11.302428 11.302428 0 1 0-22.604856 0Z" fill="#D8D8D8" p-id="2671"></path><path d="M1056.483179 232.830022a11.302428 11.302428 0 1 0 22.604856 0 11.302428 11.302428 0 1 0-22.604856 0Z" fill="#D8D8D8" p-id="2672"></path><path d="M165.851832 328.900662a11.302428 11.302428 0 1 0 22.604857 0 11.302428 11.302428 0 1 0-22.604857 0Z" fill="#D8D8D8" p-id="2673"></path></svg>