<?xml version="1.0" standalone="no"?><!DOCTYPE svg PUBLIC "-//W3C//DTD SVG 1.1//EN" "http://www.w3.org/Graphics/SVG/1.1/DTD/svg11.dtd"><svg t="1546937878815" class="icon" style="" viewBox="0 0 1024 1024" version="1.1" xmlns="http://www.w3.org/2000/svg" p-id="3131" xmlns:xlink="http://www.w3.org/1999/xlink" width="200" height="200"><defs><style type="text/css"></style></defs><path d="M202.532571 451.766857h618.057143v471.771429c0 40.228571-32.914286 73.142857-73.142857 73.142857-14.628571 0-25.6-3.657143-36.571428-10.971429l-179.2-109.714285c-10.971429-7.314286-25.6-7.314286-36.571429 0l-179.2 109.714285c-32.914286 21.942857-80.457143 10.971429-102.4-25.6-7.314286-10.971429-10.971429-25.6-10.971429-36.571428V451.766857z" fill="#56BAFC" p-id="3132"></path><path d="M418.304 451.766857H604.818286v482.742857H418.304z" fill="#95D3FD" p-id="3133"></path><path d="M109.714286 391.314286a402.285714 391.314286 0 1 0 804.571428 0 402.285714 391.314286 0 1 0-804.571428 0Z" fill="#E4E4E4" p-id="3134"></path><path d="M512 683.885714c171.885714 0 310.857143-135.314286 310.857143-299.885714S683.885714 84.114286 512 84.114286 204.8 219.428571 204.8 384s138.971429 299.885714 307.2 299.885714z" fill="#C3C3C3" p-id="3135"></path><path d="M533.942857 182.857143c36.571429 0 65.828571 10.971429 87.771429 29.257143 21.942857 21.942857 32.914286 47.542857 32.914285 80.457143 0 32.914286-10.971429 62.171429-36.571428 87.771428-14.628571 14.628571-40.228571 32.914286-76.8 58.514286-40.228571 25.6-62.171429 47.542857-69.485714 69.485714h182.857142v47.542857H402.285714c0-36.571429 10.971429-69.485714 36.571429-95.085714 14.628571-14.628571 40.228571-36.571429 84.114286-65.828571 25.6-18.285714 40.228571-32.914286 51.2-40.228572 14.628571-18.285714 25.6-40.228571 25.6-58.514286 0-21.942857-7.314286-36.571429-18.285715-47.542857-10.971429-10.971429-29.257143-14.628571-51.2-14.628571-21.942857 0-40.228571 7.314286-51.2 21.942857-10.971429 14.628571-18.285714 36.571429-18.285714 65.828571H405.942857c0-40.228571 10.971429-73.142857 36.571429-98.742857 21.942857-29.257143 51.2-40.228571 91.428571-40.228571z" fill="#FFFFFF" p-id="3136"></path></svg>